<mxfile host="app.diagrams.net" modified="2024-02-11T08:46:09.871Z" agent="Mozilla/5.0 (Macintosh; Intel Mac OS X 10.15; rv:122.0) Gecko/20100101 Firefox/122.0" etag="34GgGlQ--rLmUIVdUySn" version="23.0.2" type="github" pages="2">
  <diagram name="Page-1" id="dYARY7Wytch2X3gVvyvH">
    <mxGraphModel dx="3816" dy="2128" grid="1" gridSize="10" guides="1" tooltips="1" connect="1" arrows="1" fold="1" page="1" pageScale="1" pageWidth="850" pageHeight="1100" math="0" shadow="0">
      <root>
        <mxCell id="0" />
        <mxCell id="1" parent="0" />
        <mxCell id="5H0dntD3c6hKo_xK2O3u-1" value="" style="rounded=1;whiteSpace=wrap;html=1;absoluteArcSize=1;arcSize=14;strokeWidth=2;fillColor=#000000;" parent="1" vertex="1">
          <mxGeometry x="220" y="330" width="1150" height="1350" as="geometry" />
        </mxCell>
        <mxCell id="5H0dntD3c6hKo_xK2O3u-2" value="" style="rounded=1;whiteSpace=wrap;html=1;absoluteArcSize=1;arcSize=14;strokeWidth=2;" parent="1" vertex="1">
          <mxGeometry x="330" y="440" width="930" height="1130" as="geometry" />
        </mxCell>
      </root>
    </mxGraphModel>
  </diagram>
  <diagram name="Copy of Page-1" id="jFQj4hp3XfrKJj1r0wRC">
    <mxGraphModel dx="2726" dy="1520" grid="1" gridSize="10" guides="1" tooltips="1" connect="1" arrows="1" fold="1" page="1" pageScale="1" pageWidth="850" pageHeight="1100" math="0" shadow="0">
      <root>
        <mxCell id="77WA0WEp5yMrpF0WUtHP-0" />
        <mxCell id="77WA0WEp5yMrpF0WUtHP-1" parent="77WA0WEp5yMrpF0WUtHP-0" />
        <mxCell id="77WA0WEp5yMrpF0WUtHP-2" value="" style="rounded=1;whiteSpace=wrap;html=1;absoluteArcSize=1;arcSize=14;strokeWidth=2;fillColor=#000000;" vertex="1" parent="77WA0WEp5yMrpF0WUtHP-1">
          <mxGeometry x="220" y="330" width="1150" height="1350" as="geometry" />
        </mxCell>
        <mxCell id="77WA0WEp5yMrpF0WUtHP-3" value="" style="rounded=1;whiteSpace=wrap;html=1;absoluteArcSize=1;arcSize=14;strokeWidth=2;" vertex="1" parent="77WA0WEp5yMrpF0WUtHP-1">
          <mxGeometry x="330" y="440" width="930" height="1130" as="geometry" />
        </mxCell>
      </root>
    </mxGraphModel>
  </diagram>
</mxfile>
